<svg width="24" height="24" viewBox="0 0 24 24" fill="none" xmlns="http://www.w3.org/2000/svg">
<path d="M14 15L18.07 19.284C18.4128 19.6447 18.8632 19.8845 19.3538 19.9674C19.8444 20.0503 20.3487 19.9719 20.7909 19.744C21.2332 19.516 21.5896 19.1508 21.8067 18.7031C22.0238 18.2554 22.0899 17.7494 21.995 17.261L20.395 9.02901M8 9V11M7 10H9M14 10H16M15.5 5C16.8261 5 18.0978 5.52678 19.0355 6.46447C19.9732 7.40215 20.5 8.67392 20.5 10C20.5 11.3261 19.9732 12.5979 19.0355 13.5355C18.0978 14.4732 16.8261 15 15.5 15H10L5.985 19.227C5.64156 19.5886 5.1899 19.8288 4.69808 19.9113C4.20626 19.9939 3.70094 19.9143 3.25826 19.6847C2.81558 19.4551 2.45952 19.0878 2.24376 18.6382C2.02799 18.1886 1.9642 17.681 2.062 17.192L3.696 9.019C3.92281 7.88546 4.53539 6.86553 5.42949 6.13278C6.3236 5.40003 7.44399 4.99973 8.6 5H15.5Z" stroke="#5C5AF3" stroke-width="2" stroke-linecap="round" stroke-linejoin="round"/>
</svg>
