<svg width="46" height="46" viewBox="0 0 46 46" fill="none" xmlns="http://www.w3.org/2000/svg">
<rect x="1" y="1" width="44" height="44" rx="8" stroke="#F56E6E"/>
<path d="M15 18H31M21 22V28M25 22V28M16 18L17 30C17 30.5304 17.2107 31.0391 17.5858 31.4142C17.9609 31.7893 18.4696 32 19 32H27C27.5304 32 28.0391 31.7893 28.4142 31.4142C28.7893 31.0391 29 30.5304 29 30L30 18M20 18V15C20 14.7348 20.1054 14.4804 20.2929 14.2929C20.4804 14.1054 20.7348 14 21 14H25C25.2652 14 25.5196 14.1054 25.7071 14.2929C25.8946 14.4804 26 14.7348 26 15V18" stroke="#F56E6E" stroke-width="2" stroke-linecap="round" stroke-linejoin="round"/>
</svg>
