<svg width="46" height="46" viewBox="0 0 46 46" fill="none" xmlns="http://www.w3.org/2000/svg">
<rect x="1" y="1" width="44" height="44" rx="8" stroke="#C2BCD8"/>
<path d="M18 18.0001H17C16.4696 18.0001 15.9609 18.2108 15.5858 18.5859C15.2107 18.961 15 19.4697 15 20.0001V29.0001C15 29.5305 15.2107 30.0392 15.5858 30.4143C15.9609 30.7894 16.4696 31.0001 17 31.0001H26C26.5304 31.0001 27.0391 30.7894 27.4142 30.4143C27.7893 30.0392 28 29.5305 28 29.0001V28.0001M27 16.0001L30 19.0001M31.385 17.5851C31.7788 17.1913 32.0001 16.6571 32.0001 16.1001C32.0001 15.5431 31.7788 15.009 31.385 14.6151C30.9912 14.2213 30.457 14 29.9 14C29.343 14 28.8088 14.2213 28.415 14.6151L20 23.0001V26.0001H23L31.385 17.5851Z" stroke="#2D2D2D" stroke-width="2" stroke-linecap="round" stroke-linejoin="round"/>
</svg>
