<svg width="80" height="80" viewBox="0 0 80 80" fill="none" xmlns="http://www.w3.org/2000/svg">
<circle cx="40" cy="40" r="40" fill="#F56E6E"/>
<path d="M28 32.5H52M37 38.5V47.5M43 38.5V47.5M29.5 32.5L31 50.5C31 51.2956 31.3161 52.0587 31.8787 52.6213C32.4413 53.1839 33.2044 53.5 34 53.5H46C46.7956 53.5 47.5587 53.1839 48.1213 52.6213C48.6839 52.0587 49 51.2956 49 50.5L50.5 32.5M35.5 32.5V28C35.5 27.6022 35.658 27.2206 35.9393 26.9393C36.2206 26.658 36.6022 26.5 37 26.5H43C43.3978 26.5 43.7794 26.658 44.0607 26.9393C44.342 27.2206 44.5 27.6022 44.5 28V32.5" stroke="white" stroke-width="3" stroke-linecap="round" stroke-linejoin="round"/>
</svg>
